<mxfile host="Electron" agent="Mozilla/5.0 (Windows NT 10.0; Win64; x64) AppleWebKit/537.36 (KHTML, like Gecko) draw.io/24.7.17 Chrome/128.0.6613.36 Electron/32.0.1 Safari/537.36" version="24.7.17">
  <diagram name="Page-1" id="0kAzhJeNNhYkIKXbFklq">
    <mxGraphModel dx="1098" dy="758" grid="1" gridSize="10" guides="1" tooltips="1" connect="1" arrows="1" fold="1" page="1" pageScale="1" pageWidth="3300" pageHeight="4681" math="0" shadow="0">
      <root>
        <mxCell id="0" />
        <mxCell id="1" parent="0" />
        <mxCell id="bodMyexQ1-OxQ9Hk0aYO-26" value="" style="rounded=0;whiteSpace=wrap;html=1;fillColor=none;dashed=1;strokeColor=#454545;strokeWidth=2;fontFamily=Open Sans;fontSource=https%3A%2F%2Ffonts.googleapis.com%2Fcss%3Ffamily%3DOpen%2BSans;" parent="1" vertex="1">
          <mxGeometry x="200" y="240" width="890" height="590" as="geometry" />
        </mxCell>
        <mxCell id="bodMyexQ1-OxQ9Hk0aYO-24" value="" style="rounded=0;whiteSpace=wrap;html=1;fillColor=none;dashed=1;strokeColor=#454545;strokeWidth=2;fontFamily=Open Sans;fontSource=https%3A%2F%2Ffonts.googleapis.com%2Fcss%3Ffamily%3DOpen%2BSans;" parent="1" vertex="1">
          <mxGeometry x="240" y="60" width="330" height="150" as="geometry" />
        </mxCell>
        <mxCell id="bodMyexQ1-OxQ9Hk0aYO-5" value="" style="rounded=0;whiteSpace=wrap;html=1;fillColor=none;dashed=1;strokeColor=#474747;fontFamily=Open Sans;fontSource=https%3A%2F%2Ffonts.googleapis.com%2Fcss%3Ffamily%3DOpen%2BSans;" parent="1" vertex="1">
          <mxGeometry x="430" y="290" width="440" height="380" as="geometry" />
        </mxCell>
        <mxCell id="bodMyexQ1-OxQ9Hk0aYO-1" value="Čelni del &lt;br&gt;aplikacije" style="rounded=0;whiteSpace=wrap;html=1;fontSize=14;fillColor=#fff2cc;strokeColor=#d6b656;fontFamily=Open Sans;fontSource=https%3A%2F%2Ffonts.googleapis.com%2Fcss%3Ffamily%3DOpen%2BSans;" parent="1" vertex="1">
          <mxGeometry x="490" y="360" width="140" height="60" as="geometry" />
        </mxCell>
        <mxCell id="bodMyexQ1-OxQ9Hk0aYO-30" style="edgeStyle=orthogonalEdgeStyle;rounded=0;orthogonalLoop=1;jettySize=auto;html=1;entryX=0;entryY=0.75;entryDx=0;entryDy=0;strokeColor=#7709D7;strokeWidth=2;align=center;verticalAlign=middle;fontFamily=Open Sans;fontSize=11;fontColor=default;labelBackgroundColor=default;startArrow=classic;startFill=1;endArrow=none;fillColor=#ffe6cc;exitX=1;exitY=0.75;exitDx=0;exitDy=0;fontSource=https%3A%2F%2Ffonts.googleapis.com%2Fcss%3Ffamily%3DOpen%2BSans;endFill=0;" parent="1" source="bodMyexQ1-OxQ9Hk0aYO-2" target="bodMyexQ1-OxQ9Hk0aYO-4" edge="1">
          <mxGeometry relative="1" as="geometry" />
        </mxCell>
        <mxCell id="bodMyexQ1-OxQ9Hk0aYO-38" style="edgeStyle=orthogonalEdgeStyle;rounded=0;orthogonalLoop=1;jettySize=auto;html=1;entryX=0.25;entryY=0;entryDx=0;entryDy=0;strokeColor=#d79b00;strokeWidth=2;align=center;verticalAlign=middle;fontFamily=Open Sans;fontSource=https%3A%2F%2Ffonts.googleapis.com%2Fcss%3Ffamily%3DOpen%2BSans;fontSize=11;fontColor=default;labelBackgroundColor=default;startArrow=none;startFill=0;endArrow=classic;fillColor=#ffe6cc;" parent="1" source="bodMyexQ1-OxQ9Hk0aYO-2" target="bodMyexQ1-OxQ9Hk0aYO-4" edge="1">
          <mxGeometry relative="1" as="geometry">
            <Array as="points">
              <mxPoint x="520" y="530" />
              <mxPoint x="745" y="530" />
            </Array>
          </mxGeometry>
        </mxCell>
        <mxCell id="eWdspV383TbVCX_2ZZCu-5" style="edgeStyle=orthogonalEdgeStyle;rounded=0;orthogonalLoop=1;jettySize=auto;html=1;entryX=0;entryY=0.5;entryDx=0;entryDy=0;fillColor=#dae8fc;strokeColor=#6c8ebf;strokeWidth=2;startArrow=classic;startFill=1;" edge="1" parent="1" source="bodMyexQ1-OxQ9Hk0aYO-2" target="eWdspV383TbVCX_2ZZCu-2">
          <mxGeometry relative="1" as="geometry">
            <Array as="points">
              <mxPoint x="520" y="730" />
            </Array>
          </mxGeometry>
        </mxCell>
        <mxCell id="bodMyexQ1-OxQ9Hk0aYO-2" value="Procesiranje fotografij" style="rounded=0;whiteSpace=wrap;html=1;fontSize=14;fillColor=#fff2cc;strokeColor=#d6b656;fontFamily=Open Sans;fontSource=https%3A%2F%2Ffonts.googleapis.com%2Fcss%3Ffamily%3DOpen%2BSans;" parent="1" vertex="1">
          <mxGeometry x="440" y="550" width="140" height="60" as="geometry" />
        </mxCell>
        <mxCell id="bodMyexQ1-OxQ9Hk0aYO-18" style="edgeStyle=orthogonalEdgeStyle;rounded=0;orthogonalLoop=1;jettySize=auto;html=1;entryX=0;entryY=0.5;entryDx=0;entryDy=0;fillColor=#dae8fc;strokeColor=#6c8ebf;startArrow=classic;startFill=1;strokeWidth=2;fontFamily=Open Sans;fontSource=https%3A%2F%2Ffonts.googleapis.com%2Fcss%3Ffamily%3DOpen%2BSans;" parent="1" source="bodMyexQ1-OxQ9Hk0aYO-3" target="bodMyexQ1-OxQ9Hk0aYO-14" edge="1">
          <mxGeometry relative="1" as="geometry" />
        </mxCell>
        <mxCell id="bodMyexQ1-OxQ9Hk0aYO-3" value="Uporabniki" style="rounded=0;whiteSpace=wrap;html=1;fontSize=14;fillColor=#fff2cc;strokeColor=#d6b656;fontFamily=Open Sans;fontSource=https%3A%2F%2Ffonts.googleapis.com%2Fcss%3Ffamily%3DOpen%2BSans;" parent="1" vertex="1">
          <mxGeometry x="710" y="360" width="140" height="60" as="geometry" />
        </mxCell>
        <mxCell id="bodMyexQ1-OxQ9Hk0aYO-21" style="edgeStyle=orthogonalEdgeStyle;rounded=0;orthogonalLoop=1;jettySize=auto;html=1;entryX=0;entryY=0.5;entryDx=0;entryDy=0;fillColor=#dae8fc;strokeColor=#6c8ebf;startArrow=classic;startFill=1;strokeWidth=2;fontFamily=Open Sans;fontSource=https%3A%2F%2Ffonts.googleapis.com%2Fcss%3Ffamily%3DOpen%2BSans;" parent="1" source="bodMyexQ1-OxQ9Hk0aYO-4" target="bodMyexQ1-OxQ9Hk0aYO-19" edge="1">
          <mxGeometry relative="1" as="geometry" />
        </mxCell>
        <mxCell id="eWdspV383TbVCX_2ZZCu-4" style="edgeStyle=orthogonalEdgeStyle;rounded=0;orthogonalLoop=1;jettySize=auto;html=1;entryX=0.5;entryY=0;entryDx=0;entryDy=0;fillColor=#dae8fc;strokeColor=#6c8ebf;strokeWidth=2;startArrow=classic;startFill=1;" edge="1" parent="1" source="bodMyexQ1-OxQ9Hk0aYO-4" target="eWdspV383TbVCX_2ZZCu-2">
          <mxGeometry relative="1" as="geometry" />
        </mxCell>
        <mxCell id="bodMyexQ1-OxQ9Hk0aYO-4" value="Hramba &lt;br&gt;fotografij" style="rounded=0;whiteSpace=wrap;html=1;fontSize=14;fillColor=#fff2cc;strokeColor=#d6b656;fontFamily=Open Sans;fontSource=https%3A%2F%2Ffonts.googleapis.com%2Fcss%3Ffamily%3DOpen%2BSans;" parent="1" vertex="1">
          <mxGeometry x="710" y="550" width="140" height="60" as="geometry" />
        </mxCell>
        <mxCell id="bodMyexQ1-OxQ9Hk0aYO-6" value="Uporabnik" style="shape=umlActor;verticalLabelPosition=bottom;verticalAlign=top;html=1;outlineConnect=0;fontSize=14;fontFamily=Open Sans;fontSource=https%3A%2F%2Ffonts.googleapis.com%2Fcss%3Ffamily%3DOpen%2BSans;" parent="1" vertex="1">
          <mxGeometry x="394" y="101" width="30" height="60" as="geometry" />
        </mxCell>
        <mxCell id="bodMyexQ1-OxQ9Hk0aYO-22" style="edgeStyle=orthogonalEdgeStyle;rounded=0;orthogonalLoop=1;jettySize=auto;html=1;startArrow=classic;startFill=1;strokeWidth=2.5;fillColor=#d5e8d4;strokeColor=#82B366;exitX=0.5;exitY=0;exitDx=0;exitDy=0;fontFamily=Open Sans;fontSource=https%3A%2F%2Ffonts.googleapis.com%2Fcss%3Ffamily%3DOpen%2BSans;" parent="1" source="bodMyexQ1-OxQ9Hk0aYO-7" edge="1">
          <mxGeometry relative="1" as="geometry">
            <mxPoint x="410" y="190" as="targetPoint" />
            <Array as="points">
              <mxPoint x="280" y="340" />
              <mxPoint x="410" y="340" />
            </Array>
          </mxGeometry>
        </mxCell>
        <mxCell id="bodMyexQ1-OxQ9Hk0aYO-7" value="&lt;div style=&quot;font-size: 13px;&quot;&gt;Prehod za vmesnik uporabniškega progama&lt;/div&gt;&lt;div style=&quot;font-size: 13px;&quot;&gt;&lt;br style=&quot;font-size: 13px;&quot;&gt;&lt;/div&gt;(API Gateway)" style="rounded=0;whiteSpace=wrap;html=1;fontSize=13;fillColor=#d5e8d4;strokeColor=#82b366;fontFamily=Open Sans;fontSource=https%3A%2F%2Ffonts.googleapis.com%2Fcss%3Ffamily%3DOpen%2BSans;" parent="1" vertex="1">
          <mxGeometry x="220" y="375" width="120" height="210" as="geometry" />
        </mxCell>
        <mxCell id="bodMyexQ1-OxQ9Hk0aYO-8" value="" style="endArrow=classic;html=1;rounded=0;exitX=1;exitY=0.25;exitDx=0;exitDy=0;entryX=0;entryY=0.5;entryDx=0;entryDy=0;startArrow=classic;startFill=1;fillColor=#ffe6cc;strokeColor=#d79b00;strokeWidth=2;fontFamily=Open Sans;fontSource=https%3A%2F%2Ffonts.googleapis.com%2Fcss%3Ffamily%3DOpen%2BSans;" parent="1" source="bodMyexQ1-OxQ9Hk0aYO-7" target="bodMyexQ1-OxQ9Hk0aYO-1" edge="1">
          <mxGeometry width="50" height="50" relative="1" as="geometry">
            <mxPoint x="380" y="460" as="sourcePoint" />
            <mxPoint x="430" y="410" as="targetPoint" />
            <Array as="points">
              <mxPoint x="450" y="428" />
              <mxPoint x="450" y="390" />
            </Array>
          </mxGeometry>
        </mxCell>
        <mxCell id="bodMyexQ1-OxQ9Hk0aYO-10" value="" style="endArrow=classic;html=1;rounded=0;exitX=1;exitY=0.419;exitDx=0;exitDy=0;exitPerimeter=0;entryX=0;entryY=0.5;entryDx=0;entryDy=0;startArrow=classic;startFill=1;fillColor=#ffe6cc;strokeColor=#d79b00;strokeWidth=2;fontFamily=Open Sans;fontSource=https%3A%2F%2Ffonts.googleapis.com%2Fcss%3Ffamily%3DOpen%2BSans;" parent="1" source="bodMyexQ1-OxQ9Hk0aYO-7" target="bodMyexQ1-OxQ9Hk0aYO-3" edge="1">
          <mxGeometry width="50" height="50" relative="1" as="geometry">
            <mxPoint x="500" y="520" as="sourcePoint" />
            <mxPoint x="550" y="470" as="targetPoint" />
            <Array as="points">
              <mxPoint x="670" y="460" />
              <mxPoint x="670" y="390" />
            </Array>
          </mxGeometry>
        </mxCell>
        <mxCell id="bodMyexQ1-OxQ9Hk0aYO-11" value="" style="endArrow=classic;html=1;rounded=0;exitX=1;exitY=0.562;exitDx=0;exitDy=0;exitPerimeter=0;startArrow=classic;startFill=1;fillColor=#ffe6cc;strokeColor=#d79b00;strokeWidth=2;entryX=0.5;entryY=0;entryDx=0;entryDy=0;fontFamily=Open Sans;fontSource=https%3A%2F%2Ffonts.googleapis.com%2Fcss%3Ffamily%3DOpen%2BSans;" parent="1" source="bodMyexQ1-OxQ9Hk0aYO-7" target="bodMyexQ1-OxQ9Hk0aYO-4" edge="1">
          <mxGeometry width="50" height="50" relative="1" as="geometry">
            <mxPoint x="550" y="560" as="sourcePoint" />
            <mxPoint x="710" y="580" as="targetPoint" />
            <Array as="points">
              <mxPoint x="670" y="493" />
              <mxPoint x="780" y="493" />
            </Array>
          </mxGeometry>
        </mxCell>
        <mxCell id="bodMyexQ1-OxQ9Hk0aYO-12" value="Mikrostoritve" style="text;html=1;align=center;verticalAlign=middle;whiteSpace=wrap;rounded=0;fontSize=16;fontStyle=1;fontFamily=Open Sans;fontSource=https%3A%2F%2Ffonts.googleapis.com%2Fcss%3Ffamily%3DOpen%2BSans;" parent="1" vertex="1">
          <mxGeometry x="435" y="295" width="120" height="30" as="geometry" />
        </mxCell>
        <mxCell id="bodMyexQ1-OxQ9Hk0aYO-14" value="" style="shape=datastore;whiteSpace=wrap;html=1;fillColor=#dae8fc;strokeColor=#6c8ebf;fontFamily=Open Sans;fontSource=https%3A%2F%2Ffonts.googleapis.com%2Fcss%3Ffamily%3DOpen%2BSans;" parent="1" vertex="1">
          <mxGeometry x="950" y="360" width="60" height="60" as="geometry" />
        </mxCell>
        <mxCell id="bodMyexQ1-OxQ9Hk0aYO-17" value="Podatkovna baza z&amp;nbsp;uporabniki (PostgreSQL)" style="text;html=1;align=center;verticalAlign=middle;whiteSpace=wrap;rounded=0;fontStyle=2;fontSize=14;fontFamily=Open Sans;fontSource=https%3A%2F%2Ffonts.googleapis.com%2Fcss%3Ffamily%3DOpen%2BSans;" parent="1" vertex="1">
          <mxGeometry x="890" y="422" width="180" height="48" as="geometry" />
        </mxCell>
        <mxCell id="bodMyexQ1-OxQ9Hk0aYO-19" value="" style="shape=datastore;whiteSpace=wrap;html=1;fillColor=#dae8fc;strokeColor=#6c8ebf;fontFamily=Open Sans;fontSource=https%3A%2F%2Ffonts.googleapis.com%2Fcss%3Ffamily%3DOpen%2BSans;" parent="1" vertex="1">
          <mxGeometry x="950" y="550" width="60" height="60" as="geometry" />
        </mxCell>
        <mxCell id="bodMyexQ1-OxQ9Hk0aYO-20" value="Podatkovna baza za hranjenje metapodatkov o albumih in fotografijah&amp;nbsp;&lt;span style=&quot;background-color: initial;&quot;&gt;(PostgreSQL)&lt;/span&gt;" style="text;html=1;align=center;verticalAlign=middle;whiteSpace=wrap;rounded=0;fontStyle=2;fontSize=14;fontFamily=Open Sans;fontSource=https%3A%2F%2Ffonts.googleapis.com%2Fcss%3Ffamily%3DOpen%2BSans;" parent="1" vertex="1">
          <mxGeometry x="870" y="610" width="220" height="60" as="geometry" />
        </mxCell>
        <mxCell id="bodMyexQ1-OxQ9Hk0aYO-25" value="Odjemalci" style="text;html=1;align=center;verticalAlign=middle;whiteSpace=wrap;rounded=0;fontSize=16;fontStyle=1;fontFamily=Open Sans;fontSource=https%3A%2F%2Ffonts.googleapis.com%2Fcss%3Ffamily%3DOpen%2BSans;" parent="1" vertex="1">
          <mxGeometry x="245" y="65" width="90" height="30" as="geometry" />
        </mxCell>
        <mxCell id="bodMyexQ1-OxQ9Hk0aYO-27" value="Zaledje" style="text;html=1;align=center;verticalAlign=middle;whiteSpace=wrap;rounded=0;fontSize=16;fontStyle=1;fontFamily=Open Sans;fontSource=https%3A%2F%2Ffonts.googleapis.com%2Fcss%3Ffamily%3DOpen%2BSans;" parent="1" vertex="1">
          <mxGeometry x="203" y="248" width="85" height="30" as="geometry" />
        </mxCell>
        <mxCell id="bodMyexQ1-OxQ9Hk0aYO-31" value="HTTP REST" style="text;html=1;align=center;verticalAlign=middle;whiteSpace=wrap;rounded=0;fontSize=12;fontStyle=1;fontColor=#947E3B;fontFamily=Open Sans;fontSource=https%3A%2F%2Ffonts.googleapis.com%2Fcss%3Ffamily%3DOpen%2BSans;" parent="1" vertex="1">
          <mxGeometry x="354" y="407" width="70" height="20" as="geometry" />
        </mxCell>
        <mxCell id="bodMyexQ1-OxQ9Hk0aYO-32" value="HTTP REST" style="text;html=1;align=center;verticalAlign=middle;whiteSpace=wrap;rounded=0;fontSize=12;fontStyle=1;fontColor=#947E3B;fontFamily=Open Sans;fontSource=https%3A%2F%2Ffonts.googleapis.com%2Fcss%3Ffamily%3DOpen%2BSans;" parent="1" vertex="1">
          <mxGeometry x="354" y="442" width="70" height="20" as="geometry" />
        </mxCell>
        <mxCell id="bodMyexQ1-OxQ9Hk0aYO-33" value="HTTP REST" style="text;html=1;align=center;verticalAlign=middle;whiteSpace=wrap;rounded=0;fontSize=12;fontStyle=1;fontColor=#947E3B;fontFamily=Open Sans;fontSource=https%3A%2F%2Ffonts.googleapis.com%2Fcss%3Ffamily%3DOpen%2BSans;" parent="1" vertex="1">
          <mxGeometry x="354" y="473" width="70" height="20" as="geometry" />
        </mxCell>
        <mxCell id="bodMyexQ1-OxQ9Hk0aYO-35" value="Sporočilna vrsta (ZeroMQ)" style="text;html=1;align=center;verticalAlign=middle;whiteSpace=wrap;rounded=0;fontSize=12;fontStyle=1;fontColor=#9933FF;fontFamily=Open Sans;fontSource=https%3A%2F%2Ffonts.googleapis.com%2Fcss%3Ffamily%3DOpen%2BSans;" parent="1" vertex="1">
          <mxGeometry x="596" y="602" width="106" height="30" as="geometry" />
        </mxCell>
        <mxCell id="bodMyexQ1-OxQ9Hk0aYO-36" value="HTTP" style="text;html=1;align=center;verticalAlign=middle;whiteSpace=wrap;rounded=0;fontSize=12;fontStyle=1;fontColor=#597A46;fontFamily=Open Sans;fontSource=https%3A%2F%2Ffonts.googleapis.com%2Fcss%3Ffamily%3DOpen%2BSans;" parent="1" vertex="1">
          <mxGeometry x="310" y="320" width="70" height="20" as="geometry" />
        </mxCell>
        <mxCell id="bodMyexQ1-OxQ9Hk0aYO-39" value="HTTP REST" style="text;html=1;align=center;verticalAlign=middle;whiteSpace=wrap;rounded=0;fontSize=12;fontStyle=1;fontColor=#947E3B;fontFamily=Open Sans;fontSource=https%3A%2F%2Ffonts.googleapis.com%2Fcss%3Ffamily%3DOpen%2BSans;" parent="1" vertex="1">
          <mxGeometry x="604" y="533" width="70" height="20" as="geometry" />
        </mxCell>
        <mxCell id="eWdspV383TbVCX_2ZZCu-2" value="" style="shape=datastore;whiteSpace=wrap;html=1;fillColor=#dae8fc;strokeColor=#6c8ebf;fontFamily=Open Sans;fontSource=https%3A%2F%2Ffonts.googleapis.com%2Fcss%3Ffamily%3DOpen%2BSans;" vertex="1" parent="1">
          <mxGeometry x="750" y="700" width="60" height="60" as="geometry" />
        </mxCell>
        <mxCell id="eWdspV383TbVCX_2ZZCu-3" value="Podatkovna baza za &lt;br&gt;hrambo datotek&amp;nbsp;&lt;span style=&quot;background-color: initial;&quot;&gt;(MinIO S3)&lt;/span&gt;" style="text;html=1;align=center;verticalAlign=middle;whiteSpace=wrap;rounded=0;fontStyle=2;fontSize=14;fontFamily=Open Sans;fontSource=https%3A%2F%2Ffonts.googleapis.com%2Fcss%3Ffamily%3DOpen%2BSans;" vertex="1" parent="1">
          <mxGeometry x="677" y="760" width="206" height="40" as="geometry" />
        </mxCell>
      </root>
    </mxGraphModel>
  </diagram>
</mxfile>
